<svg viewBox="0 0 24 24.3243" xmlns="http://www.w3.org/2000/svg" xmlns:xlink="http://www.w3.org/1999/xlink" width="24.000000" height="24.324341" fill="none" customFrame="#000000">
	<path id="矢量 97" d="M2.31661 16.2162L2.31661 2.31661L0 2.31661L0 0L3.47491 0C3.78211 0 4.07673 0.122039 4.29396 0.339255C4.51117 0.556483 4.63321 0.851098 4.63321 1.1583L4.63321 15.0579L19.0402 15.0579L21.3568 5.79151L4.94982 5.79151L4.6332 5.79152L4.63321 3.4749L4.94982 3.47491L22.8417 3.47491C23.0178 3.47491 23.1915 3.51506 23.3498 3.59229C23.508 3.66952 23.6465 3.7818 23.7548 3.92061C23.8632 4.05941 23.9384 4.22109 23.9749 4.39334C24.0114 4.56559 24.008 4.74389 23.9653 4.91468L21.0695 16.4977C21.0067 16.7481 20.8622 16.9705 20.6586 17.1293C20.455 17.2882 20.2042 17.3745 19.946 17.3745L3.47491 17.3745C3.1677 17.3745 2.87309 17.2525 2.65586 17.0353C2.43864 16.8181 2.31661 16.5234 2.31661 16.2162L2.31661 16.2162ZM4.63321 24.3244C4.01881 24.3244 3.42957 24.0803 2.99513 23.6458C2.56067 23.2113 2.31661 22.6221 2.31661 22.0078C2.31661 21.3934 2.56067 20.8042 2.99513 20.3697C3.42957 19.9352 4.01881 19.6911 4.63321 19.6911C5.24761 19.6911 5.83685 19.9352 6.27129 20.3697C6.70575 20.8042 6.94982 21.3934 6.94982 22.0078C6.94982 22.6221 6.70575 23.2113 6.27129 23.6458C5.83685 24.0803 5.24761 24.3244 4.63321 24.3244ZM18.5328 24.3244C17.9185 24.3244 17.3293 24.0803 16.8948 23.6458C16.4603 23.2113 16.2162 22.6221 16.2162 22.0078C16.2162 21.3934 16.4603 20.8042 16.8948 20.3697C17.3293 19.9352 17.9185 19.6911 18.5328 19.6911C19.1472 19.6911 19.7364 19.9352 20.1709 20.3697C20.6054 20.8042 20.8494 21.3934 20.8494 22.0078C20.8494 22.6221 20.6054 23.2113 20.1709 23.6458C19.7364 24.0803 19.1472 24.3244 18.5328 24.3244Z" fill="rgb(68,68,68)" fill-rule="evenodd" />
</svg>
