<svg viewBox="0 0 24 24.9769" xmlns="http://www.w3.org/2000/svg" xmlns:xlink="http://www.w3.org/1999/xlink" width="24.000000" height="24.976929" fill="none" customFrame="#000000">
	<path id="矢量 32" d="M24 23.6436C24 23.9972 23.8595 24.3364 23.6095 24.5864C23.3595 24.8364 23.0203 24.9769 22.6667 24.9769L1.33333 24.9769C0.979707 24.9769 0.640574 24.8364 0.39052 24.5864C0.14048 24.3364 3.17891e-07 23.9972 3.17891e-07 23.6436L3.17891e-07 9.63025C-0.00014623 9.42707 0.0461604 9.22655 0.13536 9.04399C0.224547 8.86143 0.354294 8.70168 0.514667 8.57692L11.1813 0.28092C11.4153 0.0988534 11.7035 0 12 0C12.2965 0 12.5847 0.0988534 12.8187 0.28092L23.4853 8.57692C23.6457 8.70168 23.7755 8.86143 23.8647 9.04399C23.9539 9.22655 24.0001 9.42707 24 9.63025L24 23.6436L24 23.6436ZM21.3333 22.3103L21.3333 10.2809L12 3.02225L2.66667 10.2809L2.66667 22.3103L21.3333 22.3103Z" fill="rgb(68,68,68)" fill-rule="evenodd" />
</svg>
